<svg xmlns="http://www.w3.org/2000/svg" width="256" height="256" viewBox="0 0 100 100"><rect width="100" height="100" rx="20" fill="#ff6143"></rect><path fill="#fff" d="M9.10 69.68L9.10 29.94L3.98 29.17L3.98 25.97L15.89 25.97L37.20 57.20L40.78 63.98L40.78 29.94L35.22 29.17L35.22 25.97L50.32 25.97L50.32 29.17L45.20 29.94L45.20 73.52L40.14 73.52L18.38 41.58L13.46 33.14L13.46 69.74L19.54 70.38L19.54 73.52L3.98 73.52L3.98 70.38L9.10 69.68ZM50.90 29.17L50.90 25.97L67.92 25.97L67.92 29.17L62.22 29.94L72.78 59.95L75.15 67.76L77.26 59.82L86.80 29.94L81.74 29.17L81.74 25.97L96.02 25.97L96.02 29.17L91.92 29.94L76.75 74.03L71.18 74.03L54.80 29.94L50.90 29.17Z"></path></svg>